<?xml version="1.0"?>
<svg width="1246" height="1280" xmlns="http://www.w3.org/2000/svg" xmlns:svg="http://www.w3.org/2000/svg" preserveAspectRatio="xMidYMid meet">
 <metadata>Created by potrace 1.15, written by Peter Selinger 2001-2017</metadata>
 <g class="layer">
  <title>Layer 1</title>
  <g fill="#000000" id="svg_1" transform="translate(0 1280) scale(0.1 -0.1)">
   <path d="m3,12783c-6,-16 4,-5653 10,-5660c6,-6 420,218 507,275c101,65 212,156 296,244c84,87 94,104 94,164c0,81 53,149 140,179c53,18 222,118 440,258c199,129 258,170 654,470c181,136 330,247 331,245c8,-9 25,-184 25,-258c0,-58 4,-91 13,-98c6,-5 45,-12 85,-14c47,-4 79,-11 91,-22c33,-30 57,-14 53,36c-5,60 38,16 58,-60c17,-65 39,-82 108,-82c92,0 342,80 556,178c95,43 101,44 170,39c98,-8 140,-22 181,-61c19,-18 78,-62 130,-96c52,-34 95,-67 95,-72c0,-6 -49,-105 -109,-222c-60,-116 -119,-245 -131,-286c-12,-42 -88,-204 -170,-365c-288,-567 -331,-638 -439,-714c-91,-63 -95,-107 -15,-143c39,-17 62,-20 128,-16c102,5 160,34 190,93c17,31 30,42 61,51c40,11 65,40 65,77c0,37 45,103 135,198c154,163 308,382 363,517c49,121 239,374 385,512c237,224 249,238 317,400c23,54 47,101 55,103c7,3 63,-16 125,-43c164,-72 173,-74 209,-55c62,32 79,114 36,177c-14,20 -25,42 -25,48c0,6 15,26 34,45c62,61 69,173 25,365c-22,96 -70,246 -106,333c-32,77 -41,156 -58,517c-17,354 -25,416 -71,526c-18,44 -38,112 -44,150c-6,42 -24,95 -45,137c-40,79 -40,77 -19,77c24,0 89,55 254,215c150,145 187,170 318,216c139,48 244,135 372,304c54,72 151,188 216,259c107,117 168,172 360,329c32,27 175,158 317,290l258,242l-1348,6c-741,3 -2321,7 -3511,8c-2003,1 -2163,0 -2169,-16zm4800,-1928c4,-8 2,-40 -3,-72c-14,-81 -14,-79 28,-100c44,-22 68,-65 94,-173c37,-156 34,-353 -9,-485c-29,-93 -44,-92 -93,6c-34,66 -77,106 -126,115c-103,19 -243,-31 -278,-100c-19,-38 -19,-40 -1,-111c11,-46 15,-86 11,-109c-6,-31 -2,-42 23,-74c28,-36 60,-117 49,-127c-3,-3 -26,4 -52,16c-60,26 -82,21 -177,-40c-118,-76 -196,-146 -221,-199c-22,-45 -50,-64 -69,-45c-10,10 -32,205 -50,436l-12,158l244,247c261,264 346,357 373,410c22,42 102,131 184,205c70,61 77,65 85,42zm-1019,-1082c23,-46 26,-80 35,-339c6,-203 11,-255 25,-281c30,-59 72,-55 227,23c47,23 100,54 116,68c37,31 73,33 98,6c15,-17 17,-31 12,-103c-12,-145 -51,-237 -112,-263c-41,-17 -69,-8 -126,37c-47,37 -340,180 -431,210c-65,21 -70,21 -111,5c-24,-9 -83,-42 -132,-72c-49,-31 -136,-77 -194,-101c-58,-25 -139,-60 -180,-79c-80,-37 -240,-71 -284,-61c-56,15 -147,118 -147,168c0,44 50,91 187,176c68,43 166,111 216,152c118,95 234,170 486,315c113,65 221,129 240,142c46,31 57,30 75,-3z" fill="#7f7f7f" id="svg_2"/>
   <path d="m9931,12753c-154,-3 -188,-6 -203,-20c-48,-43 -2,-107 110,-153c106,-44 126,-58 111,-76c-8,-10 -34,-14 -89,-14c-74,0 -80,-2 -109,-31c-47,-46 -39,-104 17,-133c16,-8 77,-16 147,-19c167,-8 353,-66 290,-91c-9,-3 -69,-13 -133,-21c-140,-18 -285,-55 -367,-94c-33,-16 -82,-34 -110,-40c-62,-15 -123,-48 -147,-81c-23,-31 -42,-113 -118,-505c-33,-170 -65,-333 -70,-362c-6,-28 -28,-87 -50,-131c-92,-191 -117,-301 -99,-445c9,-77 19,-108 59,-192c27,-55 65,-155 84,-222c20,-67 49,-156 66,-198c16,-41 30,-86 30,-98c0,-32 -27,-67 -53,-67c-12,0 -53,-21 -91,-47l-69,-47l6,-80c11,-148 44,-214 114,-231c24,-6 47,-15 53,-21c6,-6 19,-44 31,-85c25,-94 68,-207 80,-215c6,-3 18,1 28,10c17,16 19,13 23,-60c4,-64 9,-81 27,-95c11,-9 21,-22 21,-28c0,-13 36,-51 49,-51c5,0 26,15 46,34c28,27 52,38 110,51c40,9 79,22 85,30c17,20 14,101 -4,154c-32,88 -15,127 48,116c42,-8 266,-131 319,-175c44,-37 60,-71 81,-177c22,-107 74,-513 91,-711c7,-89 21,-186 29,-216c9,-29 25,-133 36,-232c11,-98 29,-228 40,-289c11,-60 33,-201 49,-313c32,-212 50,-280 51,-184c0,30 -16,165 -35,300c-19,136 -48,356 -65,490c-16,134 -46,341 -65,460c-35,210 -75,490 -75,518c0,51 66,-72 77,-144c3,-20 17,-50 30,-66c39,-46 53,-81 87,-214c18,-70 44,-147 57,-172c23,-45 23,-48 30,-515c9,-558 23,-735 53,-704c6,5 -10,573 -23,883c-6,121 -5,209 0,224c7,18 3,40 -16,87c-13,34 -41,116 -60,181c-46,152 -69,215 -107,289c-36,71 -79,188 -71,195c6,5 253,-250 253,-262c0,-4 -12,-13 -27,-20c-16,-7 -28,-19 -28,-27c0,-14 5,-17 55,-40c14,-7 35,-27 47,-46c43,-65 58,-69 252,-73c212,-5 222,-9 331,-120c58,-60 87,-81 128,-96c40,-14 58,-27 80,-60c16,-23 68,-70 122,-109c52,-37 111,-85 131,-107c22,-24 50,-43 69,-46c39,-8 47,-26 26,-56c-24,-34 -20,-64 13,-85c82,-52 193,-144 229,-189c22,-28 59,-65 82,-84c23,-18 46,-43 50,-56c14,-35 -6,-92 -39,-109c-58,-30 -211,-216 -211,-257c0,-17 15,-18 265,-18l265,0l0,2955l0,2955l-1172,-2c-645,-2 -1256,-4 -1357,-5zm-361,-1068c44,-23 60,-53 60,-111c0,-37 -6,-58 -20,-75c-20,-24 -20,-24 -36,-4c-42,53 -56,97 -49,151c3,30 9,54 11,54c3,0 18,-7 34,-15zm404,-164c47,-7 76,-16 92,-32c16,-15 38,-23 64,-25c21,-1 46,-8 54,-16c8,-8 65,-27 126,-42c61,-15 155,-43 208,-63c53,-19 118,-37 144,-40c43,-4 50,-9 78,-53c17,-26 69,-85 115,-129c47,-45 85,-89 85,-97c0,-28 -33,-72 -64,-88c-17,-8 -53,-22 -79,-31c-62,-22 -131,-75 -135,-103c-3,-19 6,-26 50,-46c29,-13 71,-29 93,-36c22,-7 51,-21 64,-31c13,-11 32,-19 42,-19c11,0 19,-4 19,-10c0,-14 -35,-30 -64,-30c-14,0 -28,-4 -31,-10c-3,-5 -16,-10 -29,-10c-12,0 -26,-3 -30,-7c-4,-5 -13,-8 -19,-8c-18,0 -38,-74 -35,-130l3,-50l65,-17c49,-13 71,-25 92,-50l27,-33l-22,-7c-12,-3 -36,-6 -53,-7c-17,-1 -48,-12 -68,-26c-20,-14 -45,-25 -56,-25c-24,0 -33,-15 -40,-65l-5,-40l-58,3c-67,5 -223,-11 -391,-39c-109,-18 -139,-26 -236,-64c-44,-18 -124,-19 -138,-2c-5,6 -18,62 -27,122c-37,248 -77,427 -120,541l-24,65l35,39c20,21 44,42 54,45c13,4 23,26 34,78c9,40 25,86 36,102c34,51 28,138 -16,223l-36,70l26,75c14,41 26,80 26,86c0,5 4,21 9,35c9,21 14,24 38,16c15,-5 59,-13 97,-19zm885,-1775c6,-7 26,-16 43,-20c39,-8 168,-66 168,-76c0,-4 -9,-15 -21,-26c-12,-10 -32,-41 -46,-68l-24,-48l41,4l41,4l-25,-19c-14,-10 -26,-28 -26,-40c-1,-21 -2,-21 -23,6c-13,15 -26,24 -30,21c-11,-11 -8,-114 4,-157c5,-21 24,-53 40,-72l31,-35l-25,-11c-14,-6 -30,-21 -35,-33c-8,-16 -11,-17 -11,-4c-1,13 -8,16 -36,11c-40,-6 -65,9 -58,36c6,23 -14,38 -30,22c-6,-6 -19,-11 -29,-11c-10,0 -21,-7 -24,-15c-10,-24 -31,-17 -44,14c-7,19 -10,50 -6,83c7,59 12,120 21,220c8,104 24,166 52,198c28,34 36,36 52,16zm-402,-68c6,-7 16,-31 23,-53c7,-22 18,-47 25,-55c7,-8 15,-55 18,-103c4,-49 12,-95 18,-103c13,-16 18,-142 6,-161c-8,-13 -143,120 -161,158c-5,11 -35,35 -66,54c-72,44 -140,116 -140,149c0,22 7,26 58,37c71,16 107,31 152,63c40,29 53,31 67,14zm543,-666c0,-10 -5,-23 -11,-29c-5,-5 -10,-30 -11,-53c0,-38 4,-47 33,-71c32,-27 33,-29 15,-42c-15,-11 -17,-17 -7,-35c18,-34 14,-45 -48,-138c-58,-88 -131,-169 -131,-146c0,7 -10,12 -23,12c-60,0 -144,157 -154,287c-4,53 -2,77 8,89c17,20 89,53 199,89c47,15 92,34 100,41c20,19 30,18 30,-4zm89,-418c1,-23 12,-61 26,-88c30,-57 24,-61 -71,-53c-74,6 -83,10 -66,37c16,27 15,29 -8,23c-19,-5 -20,-4 -8,23c19,43 79,146 97,168c15,17 16,16 23,-25c3,-24 7,-62 7,-85z" fill="#7f7f7f" id="svg_3"/>
   <path d="m7868,6421c-53,-3 -99,-9 -103,-12c-3,-4 11,-30 33,-59c22,-28 45,-71 52,-93c8,-23 23,-55 35,-72c32,-44 215,-386 259,-483c20,-45 72,-189 115,-320c95,-289 152,-428 196,-479c31,-36 69,-90 213,-301c29,-42 54,-86 56,-97c20,-101 30,-136 56,-190c16,-35 49,-83 72,-108c24,-25 53,-59 65,-75c12,-16 43,-37 70,-47c62,-23 91,-51 165,-158l60,-89l-93,-96c-132,-136 -275,-268 -335,-307c-71,-48 -145,-74 -236,-86c-98,-12 -115,-5 -181,76c-77,95 -82,109 -68,181c16,79 2,109 -71,154c-29,18 -56,38 -61,46c-6,10 -14,9 -40,-5c-17,-10 -57,-22 -87,-25c-97,-11 -204,-39 -227,-59c-30,-26 -48,-74 -35,-90c7,-8 7,-28 2,-57c-17,-87 -13,-113 23,-141c21,-17 44,-52 61,-93l28,-66l-36,-49c-41,-55 -88,-153 -106,-221c-18,-66 -49,-122 -140,-250c-110,-155 -250,-435 -279,-558c-12,-49 -21,-98 -21,-109c0,-30 39,-73 84,-94c38,-17 42,-17 54,-2c16,22 15,72 -3,103c-8,14 -14,40 -15,58c0,29 3,33 23,30c16,-2 23,-11 25,-33c5,-53 10,-61 29,-42c20,19 22,124 4,170c-15,37 -5,54 63,106c57,45 88,87 151,209c21,41 69,108 107,150c38,41 78,93 89,114c11,22 27,42 35,45c8,3 66,-28 137,-73c67,-43 183,-116 257,-162c74,-47 146,-94 159,-106c39,-35 81,-97 81,-121c0,-13 20,-45 46,-74c31,-34 47,-61 48,-81c1,-16 7,-35 14,-42c17,-17 15,-25 -9,-31c-17,-5 -18,-8 -8,-25c10,-16 10,-26 1,-46c-16,-35 -29,-33 -35,6c-3,18 -17,65 -32,105l-27,71l-54,-19c-76,-25 -130,-57 -144,-85c-15,-27 3,-111 51,-235c28,-73 33,-79 67,-89c20,-5 62,-10 93,-10l56,0l7,-107c3,-59 11,-112 16,-117c6,-6 10,-45 10,-88c0,-50 4,-78 11,-78c6,0 22,-9 36,-20c32,-25 38,-25 63,2c25,28 26,42 0,26c-10,-7 -22,-10 -25,-7c-9,10 -18,129 -9,129c5,-1 22,-17 38,-38c16,-21 26,-29 22,-17c-12,40 -26,162 -26,228c0,37 -4,67 -9,67c-5,0 -11,-8 -13,-17c-2,-11 -6,-14 -10,-7c-4,6 0,23 8,38c9,19 14,59 14,117c0,96 9,113 43,81c29,-26 109,-66 188,-92c35,-12 70,-26 77,-32c7,-6 27,-8 46,-5c23,4 46,-1 70,-14c24,-13 56,-19 98,-19c35,-1 90,-7 123,-15c33,-8 116,-22 185,-30c230,-29 266,-52 319,-211c18,-54 44,-116 57,-137c13,-20 84,-99 157,-175c211,-218 287,-303 287,-318c0,-28 162,-114 216,-114c22,0 42,28 59,82c30,96 57,158 69,158c11,-1 178,-331 192,-380c4,-14 32,-79 63,-145c31,-66 81,-194 110,-285c69,-213 74,-223 128,-287l45,-53l564,0l564,0l0,3215l0,3215l-2242,-2c-1234,-1 -2287,-4 -2340,-7zm1593,-2784c20,-14 40,-39 49,-63c8,-23 34,-66 58,-96c48,-62 92,-165 92,-214c0,-32 -1,-33 -57,-39c-32,-3 -72,-13 -89,-23c-39,-21 -183,-127 -281,-207c-100,-81 -123,-95 -155,-95c-15,0 -39,-11 -54,-24l-28,-23l22,-12c13,-7 20,-17 16,-22c-8,-14 -91,-2 -120,16c-43,28 -156,281 -141,317c3,9 30,29 61,46c39,22 89,69 168,158c105,116 252,244 333,287c42,23 86,21 126,-6zm330,-574c12,-27 37,-69 56,-94c18,-26 33,-54 33,-62c0,-9 11,-29 25,-45c18,-22 28,-49 34,-99c11,-79 21,-108 90,-258c28,-60 51,-117 51,-126c0,-24 -65,-109 -111,-146c-65,-51 -113,-44 -147,22c-28,55 -61,307 -82,625c-12,172 -8,230 15,230c7,0 23,-21 36,-47zm-295,-400c37,-86 97,-264 90,-271c-4,-3 -51,38 -106,93l-99,98l16,31c23,45 62,106 68,106c3,0 17,-26 31,-57zm-45,-170c121,-115 208,-241 209,-300l0,-23l-72,26c-128,46 -165,69 -173,106c-4,18 -8,40 -11,49c-6,20 -46,39 -84,39c-40,0 -44,13 -19,62c32,64 59,98 75,98c9,0 42,-26 75,-57zm-746,-429c-3,-19 -10,-34 -15,-34c-13,0 -12,16 2,65c14,47 24,24 13,-31zm1483,35c7,-11 53,-97 102,-190c49,-94 108,-198 130,-231c22,-33 40,-62 40,-65c0,-24 -397,333 -436,392c-16,24 -15,27 1,45c10,11 23,20 30,20c7,0 31,13 55,29c47,31 59,31 78,0zm-1449,-61c0,-7 -4,-22 -8,-32c-10,-26 -25,-3 -16,24c7,22 25,28 24,8zm39,-124c-10,-10 -28,6 -28,24c0,15 1,15 17,-1c9,-9 14,-19 11,-23zm1440,-131c196,-162 347,-294 369,-325c67,-94 38,-237 -48,-238c-34,0 -108,65 -159,140c-61,89 -280,485 -280,505c0,12 17,0 118,-82zm457,-435c5,-18 3,-28 -4,-28c-15,0 -34,39 -26,57c7,21 21,7 30,-29z" fill="#7f7f7f" id="svg_4"/>
   <path d="m50,3280l0,-3130l225,0l225,0l0,38c0,26 10,53 31,85c28,42 31,56 39,168c11,136 15,154 41,188c11,13 19,40 20,60c0,20 6,54 13,76c9,31 18,42 41,48c17,5 59,24 95,42c50,26 90,37 173,48c162,22 180,42 155,167c-13,65 -13,70 2,65c10,-3 23,1 29,9c10,12 9,23 -5,56c-16,35 -22,40 -51,40c-21,0 -36,6 -41,17c-25,47 -53,565 -32,578c13,8 62,-20 271,-157c182,-118 253,-149 387,-168c102,-14 180,-6 249,25c54,24 146,83 151,97c7,17 28,7 55,-27c27,-34 59,-45 72,-25c3,5 1,10 -5,10c-7,0 -9,8 -5,20c5,15 2,20 -10,20c-13,0 -16,6 -11,23c4,12 9,35 13,51c10,45 113,78 105,33c-2,-9 2,-17 8,-17c5,0 10,-22 10,-51c0,-66 22,-101 81,-134c58,-31 129,-41 187,-26c53,15 122,80 122,115c0,36 12,39 71,16c28,-12 53,-19 56,-17c2,2 -10,19 -27,37c-36,38 -122,189 -140,245c-7,22 -23,53 -36,68c-32,38 -21,57 64,103c151,84 330,221 440,337c46,50 52,60 52,100c0,57 -19,121 -92,302c-80,199 -212,467 -287,584c-33,52 -63,103 -67,114c-5,16 6,31 49,69c64,56 87,109 87,198c0,71 -14,112 -57,173c-67,91 -184,145 -289,133c-73,-8 -154,-42 -185,-76c-17,-18 -41,-30 -68,-35c-26,-4 -44,-13 -47,-23c-13,-47 -70,-145 -95,-166c-16,-14 -29,-31 -29,-40c0,-8 18,-36 40,-61c48,-55 72,-100 94,-174c17,-57 15,-71 -12,-71c-28,0 -118,46 -185,94c-89,64 -354,343 -392,414c-46,86 -88,144 -195,266c-180,208 -290,361 -321,448c-11,32 -10,42 10,90c13,29 37,67 54,85c40,42 46,83 46,324c1,152 -2,206 -14,240c-19,54 -34,197 -37,349c-2,112 -1,118 40,235c23,66 54,181 67,255c14,74 27,143 29,153c4,16 -31,17 -630,17l-634,0l0,-3130zm987,1168c11,-13 82,-124 157,-247c75,-123 156,-247 180,-275c24,-28 96,-127 160,-221c150,-219 213,-299 330,-414l94,-94l-53,-71c-85,-112 -90,-153 -40,-286c16,-40 16,-58 5,-172c-7,-71 -16,-128 -20,-128c-11,0 -43,40 -119,149c-80,115 -195,230 -270,270l-57,30l-68,-45c-91,-61 -173,-145 -223,-229c-22,-39 -82,-119 -133,-180c-102,-122 -79,-111 -225,-107l-65,2l0,85c0,55 6,99 16,123c8,20 26,89 39,152c13,63 31,131 39,151c29,70 18,243 -35,538l-20,114l36,143c43,169 43,213 1,233c-25,12 -27,15 -12,23c9,5 16,20 16,33c0,13 11,37 25,53c14,17 25,34 25,39c0,5 13,27 30,49c19,25 30,51 30,73c0,20 10,47 24,65c13,17 36,56 51,86c44,89 50,93 82,58zm1781,-1741c34,-67 63,-126 62,-130c0,-7 -94,-142 -164,-237c-54,-73 -162,-171 -215,-197l-54,-27l-20,25c-43,53 -4,197 103,376c61,101 208,313 218,313c4,0 35,-55 70,-123zm-1448,-279c17,-35 30,-80 30,-100c0,-33 -3,-38 -22,-38c-13,0 -36,8 -53,18c-16,10 -42,22 -57,25c-37,10 -35,29 6,74c18,21 38,48 45,61c6,12 14,22 17,22c3,0 18,-28 34,-62zm-666,-818c37,-113 86,-301 86,-332c0,-11 -8,-18 -19,-18c-11,0 -23,-4 -26,-10c-13,-21 -37,-8 -52,28c-22,52 -40,167 -49,303c-6,111 -3,139 16,139c4,0 24,-50 44,-110z" fill="#7f7f7f" id="svg_5"/>
  </g>
 </g>
</svg>